<?xml version="1.0" encoding="UTF-8" standalone="no"?>
<svg
   xmlns:dc="http://purl.org/dc/elements/1.1/"
   xmlns:cc="http://creativecommons.org/ns#"
   xmlns:rdf="http://www.w3.org/1999/02/22-rdf-syntax-ns#"
   xmlns:svg="http://www.w3.org/2000/svg"
   xmlns="http://www.w3.org/2000/svg"
   xmlns:xlink="http://www.w3.org/1999/xlink"
   xmlns:sodipodi="http://sodipodi.sourceforge.net/DTD/sodipodi-0.dtd"
   xmlns:inkscape="http://www.inkscape.org/namespaces/inkscape"
   height="512pt"
   viewBox="0 -21 512.016 512"
   width="512pt"
   version="1.1"
   id="svg6"
   sodipodi:docname="free-icon-checkmark-1828710.svg"
   inkscape:version="1.0.2-2 (e86c870879, 2021-01-15)">
  <metadata
     id="metadata12">
    <rdf:RDF>
      <cc:Work
         rdf:about="">
        <dc:format>image/svg+xml</dc:format>
        <dc:type
           rdf:resource="http://purl.org/dc/dcmitype/StillImage" />
      </cc:Work>
    </rdf:RDF>
  </metadata>
  <defs
     id="defs10">
    <clipPath
       clipPathUnits="userSpaceOnUse"
       id="clipPath857">
      <use
         x="0"
         y="0"
         xlink:href="#g853"
         id="use859" />
    </clipPath>
  </defs>
  <sodipodi:namedview
     pagecolor="#ffffff"
     bordercolor="#666666"
     borderopacity="1"
     objecttolerance="10"
     gridtolerance="10"
     guidetolerance="10"
     inkscape:pageopacity="0"
     inkscape:pageshadow="2"
     inkscape:window-width="1920"
     inkscape:window-height="1017"
     id="namedview8"
     showgrid="false"
     inkscape:zoom="0.60610015"
     inkscape:cx="-31.082184"
     inkscape:cy="93.594325"
     inkscape:window-x="-8"
     inkscape:window-y="-8"
     inkscape:window-maximized="1"
     inkscape:current-layer="svg6" />
  <g
     id="g855"
     clip-path="url(#clipPath857)"
     style="fill:#b8a07e;fill-opacity:1">
    <g
       inkscape:label="Clip"
       id="g853"
       style="fill:#b8a07e;fill-opacity:1">
      <path
         d="m234.667969 469.339844c-129.386719 0-234.667969-105.277344-234.667969-234.664063s105.28125-234.6679685 234.667969-234.6679685c44.992187 0 88.765625 12.8203125 126.589843 37.0976565 7.425782 4.78125 9.601563 14.679687 4.820313 22.125-4.796875 7.445312-14.675781 9.597656-22.121094 4.820312-32.640625-20.972656-70.441406-32.042969-109.289062-32.042969-111.746094 0-202.667969 90.921876-202.667969 202.667969 0 111.742188 90.921875 202.664063 202.667969 202.664063 111.742187 0 202.664062-90.921875 202.664062-202.664063 0-6.679687-.320312-13.292969-.9375-19.796875-.851562-8.8125 5.589844-16.621094 14.378907-17.472656 8.832031-.8125 16.617187 5.589844 17.472656 14.378906.722656 7.53125 1.085937 15.167969 1.085937 22.890625 0 129.386719-105.277343 234.664063-234.664062 234.664063zm0 0"
         id="path2"
         style="fill:#b8a07e;fill-opacity:1" />
      <path
         d="m261.332031 288.007812c-4.09375 0-8.191406-1.558593-11.304687-4.691406l-96-96c-6.25-6.253906-6.25-16.386718 0-22.636718s16.382812-6.25 22.632812 0l84.695313 84.695312 223.335937-223.339844c6.253906-6.25 16.386719-6.25 22.636719 0s6.25 16.382813 0 22.632813l-234.667969 234.667969c-3.136718 3.113281-7.230468 4.671874-11.328125 4.671874zm0 0"
         id="path4"
         style="fill:#b8a07e;fill-opacity:1" />
    </g>
  </g>
</svg>
