<?xml version="1.0" standalone="no"?>
<!DOCTYPE svg PUBLIC "-//W3C//DTD SVG 20010904//EN"
 "http://www.w3.org/TR/2001/REC-SVG-20010904/DTD/svg10.dtd">
<svg version="1.0" xmlns="http://www.w3.org/2000/svg"
 width="1000.000000pt" height="1000.000000pt" viewBox="0 0 1000.000000 1000.000000"
 preserveAspectRatio="xMidYMid meet">
<metadata>
Created by potrace 1.16, written by Peter Selinger 2001-2019
</metadata>
<g transform="translate(0.000000,1000.000000) scale(0.100000,-0.100000)"
fill="#b8a07e" stroke="none">
<path d="M2906 8269 c-405 -39 -777 -150 -1151 -343 -338 -174 -547 -326 -815
-595 -194 -195 -315 -343 -439 -539 -274 -432 -441 -918 -490 -1426 -7 -72
-11 -695 -11 -1833 l0 -1723 865 0 864 0 3 1723 3 1722 23 108 c127 599 589
1053 1198 1178 75 15 156 21 337 26 l237 6 0 -867 c0 -708 3 -893 15 -1012 51
-480 203 -926 460 -1349 255 -419 626 -795 1035 -1047 434 -269 878 -420 1382
-474 220 -23 636 -15 843 15 665 100 1287 409 1768 880 271 265 466 537 637
886 164 335 250 612 307 990 15 98 18 182 18 455 -1 375 -12 482 -79 755 -98
395 -278 793 -518 1142 -35 51 -308 371 -608 712 l-545 620 -1127 0 c-621 1
-1128 -1 -1128 -4 0 -2 446 -521 992 -1152 546 -632 1015 -1180 1043 -1219
268 -372 329 -951 149 -1409 -77 -193 -186 -357 -339 -510 -210 -210 -445
-344 -718 -410 -409 -99 -848 -19 -1211 222 -123 82 -294 250 -384 378 -123
174 -216 391 -259 605 -15 78 -17 228 -20 1793 l-4 1707 -1122 -1 c-617 -1
-1162 -6 -1211 -10z"/>
<path d="M6652 5608 c-210 -29 -385 -184 -448 -393 -27 -90 -24 -259 5 -345
62 -178 210 -323 385 -378 71 -22 242 -21 321 2 190 56 353 221 406 411 22 78
17 236 -9 320 -64 208 -243 352 -478 384 -85 12 -93 12 -182 -1z"/>
</g>
</svg>
