<?xml version="1.0" ?><!DOCTYPE svg  PUBLIC '-//W3C//DTD SVG 1.1//EN'  'http://www.w3.org/Graphics/SVG/1.1/DTD/svg11.dtd'><svg height="43.3492mm" style="shape-rendering:geometricPrecision; text-rendering:geometricPrecision; image-rendering:optimizeQuality; fill-rule:evenodd; clip-rule:evenodd" version="1.1" viewBox="0 0 369 369" width="43.3492mm" xml:space="preserve" xmlns="http://www.w3.org/2000/svg" xmlns:xlink="http://www.w3.org/1999/xlink"><defs><style type="text/css">
   <![CDATA[
    .fil2 {fill:#785729}
    .fil0 {fill:#b8a07e}
    .fil1 {fill:white}
   ]]>
  </style></defs><g id="Layer_x0020_1"><g id="_444239888"><rect class="fil0" height="369" rx="40" ry="40" width="369"/><path class="fil1" d="M83 172c0,18 -2,92 3,104 2,5 6,10 9,14 8,9 21,13 33,13l115 0c27,0 46,-18 46,-39l0 -92c0,-4 -7,-3 -12,-3l-48 0c1,4 9,17 9,33 0,37 -41,61 -75,45 -14,-7 -25,-21 -28,-38 -3,-14 2,-27 8,-40l-47 0c-5,0 -13,-1 -13,3zm103 58c-7,0 -15,-3 -20,-8 -20,-19 -4,-51 17,-51 18,0 31,9 33,28 1,17 -14,31 -30,31zm-41 -30c0,27 28,50 57,38 38,-17 31,-76 -15,-78 -21,-2 -42,19 -42,40zm-22 -53l-8 0 0 -49c-3,0 -6,0 -6,4l0 45 -8 0 0 -42c-11,3 -18,23 -18,37 0,14 -2,22 3,22l61 0c1,0 13,-9 16,-10 7,-3 14,-5 20,-5 9,-1 17,1 25,4 30,15 -10,11 81,11l0 -28c0,-21 -19,-39 -40,-39l-112 0 0 50 -8 0 0 -50 -6 0 0 50zm121 -33l18 0c4,0 8,4 8,8l0 18c0,4 -4,7 -8,7l-18 0c-4,0 -7,-3 -7,-7l0 -18c0,-4 3,-8 7,-8z"/><path class="fil2" d="M216 199c-2,-19 -15,-28 -33,-28 -21,0 -37,32 -17,51 5,5 13,8 20,8 16,0 31,-14 30,-31z"/><path class="fil2" d="M225 189c5,18 -2,40 -23,49 -15,6 -29,3 -40,-5l19 19c28,2 56,-18 57,-48l-13 -15z"/><path class="fil2" d="M289 172l0 92c0,21 -19,39 -46,39l-115 0c-11,0 -23,-4 -31,-11l78 77 154 0 40 -40 0 -127 -86 -86c3,6 6,13 6,20l0 28c-91,0 -51,4 -81,-11 -6,-2 -12,-4 -18,-4l12 14c12,5 20,15 23,26l13 15c0,-1 0,-1 0,-2 0,-16 -8,-29 -9,-33l48 0c5,0 12,-1 12,3z"/><path class="fil2" d="M244 147l18 0c4,0 8,-3 8,-7l0 -18c0,-4 -4,-8 -8,-8l-18 0c-4,0 -7,4 -7,8l0 18c0,4 3,7 7,7z"/></g></g></svg>